<?xml version="1.0" ?><!DOCTYPE svg  PUBLIC '-//W3C//DTD SVG 1.1//EN'  'http://www.w3.org/Graphics/SVG/1.1/DTD/svg11.dtd'><svg enable-background="new 0 0 512 512" height="512px" id="Layer_1" version="1.1" viewBox="0 0 512 512" width="512px" xml:space="preserve" xmlns="http://www.w3.org/2000/svg" xmlns:xlink="http://www.w3.org/1999/xlink"><g><path d="M400,32H112c-44.18,0-80,35.813-80,80v288c0,44.188,35.82,80,80,80h288c44.18,0,80-35.813,80-80V112   C480,67.813,444.18,32,400,32z M365.609,319.453c3.188,3.203,3.188,8.344,0,11.547l-34.617,34.609   c-3.188,3.188-8.353,3.188-11.531,0L256,302.141l-63.461,63.469c-3.18,3.188-8.344,3.188-11.531,0L146.398,331   c-3.195-3.203-3.195-8.344,0-11.547L209.844,256l-63.445-63.453c-3.195-3.203-3.195-8.344,0-11.531l34.609-34.625   c3.188-3.188,8.352-3.188,11.531,0L256,209.859l63.461-63.469c3.18-3.188,8.344-3.188,11.531,0l34.617,34.625   c3.188,3.188,3.188,8.328,0,11.531L302.156,256L365.609,319.453z" fill="#4D4D4D"/></g></svg>