<?xml version="1.0" ?><!DOCTYPE svg  PUBLIC '-//W3C//DTD SVG 1.1//EN'  'http://www.w3.org/Graphics/SVG/1.1/DTD/svg11.dtd'><svg enable-background="new 0 0 36 36" height="36px" id="Layer_1" version="1.1" viewBox="0 0 36 36" width="36px" xml:space="preserve" xmlns="http://www.w3.org/2000/svg" xmlns:xlink="http://www.w3.org/1999/xlink"><g><defs><rect height="36" id="SVGID_1_" width="36"/></defs><g><defs><rect height="36" id="SVGID_3_" width="36"/></defs><path d="M29.309,6.688C26.288,3.666,22.27,2,17.997,2    C13.724,2,9.706,3.665,6.683,6.685c-6.239,6.24-6.238,16.391,0,22.628C9.705,32.335,13.723,34,17.997,34    c4.274,0,8.292-1.665,11.312-4.688c3.022-3.021,4.688-7.039,4.688-11.312S32.332,9.709,29.309,6.688 M27.895,27.898    C25.163,30.633,21.58,32,17.997,32s-7.166-1.367-9.9-4.102c-5.468-5.467-5.468-14.33,0-19.799C10.831,5.367,14.414,4,17.997,4    s7.165,1.367,9.897,4.101C33.363,13.568,33.364,22.432,27.895,27.898" fill="#231F20"/><path d="M18.298,11c-2.34,0-4.081,1.059-5.302,2.362l1.801,2.139    c0.9-0.978,1.98-1.711,3.5-1.711c1.7,0,2.381,0.55,2.381,1.486c0,0.735-0.301,1.061-1.301,1.529    c-2.261,1.059-2.382,2.26-2.382,4.195h2c0.062-1.201,0.782-1.67,2.462-2.484c0.961-0.469,2.021-1.467,2.021-3.362    C23.479,12.323,21.359,11,18.298,11" fill="#231F20"/><path d="M17.997,23c-0.812,0-1.5,0.687-1.5,1.5s0.688,1.5,1.5,1.5s1.5-0.687,1.5-1.5    S18.809,23,17.997,23" fill="#231F20"/></g></g></svg>