<?xml version="1.0" ?><!DOCTYPE svg  PUBLIC '-//W3C//DTD SVG 1.1//EN'  'http://www.w3.org/Graphics/SVG/1.1/DTD/svg11.dtd'><svg enable-background="new 0 0 512 512" height="512px" id="Layer_1" version="1.1" viewBox="0 0 512 512" width="512px" xml:space="preserve" xmlns="http://www.w3.org/2000/svg" xmlns:xlink="http://www.w3.org/1999/xlink"><g><path d="M400,32H112c-44.18,0-80,35.813-80,80v288c0,44.188,35.82,80,80,80h288c44.18,0,80-35.813,80-80V112   C480,67.813,444.18,32,400,32z M128,247.672v-99.578c0-3.359,2.031-6.406,5.141-7.688c3.11-1.282,6.688-0.578,9.07,1.797   l30.195,30.203C203.844,139.438,232.703,128,259.656,128c60.344,0,96.625,46.516,107.608,69.156   c1.406,2.922,0.759,6.359-1.563,8.609c-0.228,0.219-0.453,0.422-0.68,0.594c-2.853,2.188-6.57,1.656-9.781,0   c-84.961-43.844-119.07-19.688-141.5,7.391l28.047,28.047c2.383,2.375,3.094,5.953,1.805,9.063c-1.289,3.11-4.32,5.141-7.688,5.141   h-99.578C131.727,256,128,252.266,128,247.672z M384,363.906c0,3.359-2.031,6.406-5.141,7.688c-3.11,1.282-6.688,0.578-9.07-1.797   l-30.484-30.484C307.984,372.047,279.219,384,252.344,384c-60.344,0-96.625-47.094-107.609-69.734   c-1.406-2.922-0.758-6.358,1.563-8.608c0.227-0.22,0.453-0.423,0.68-0.595c2.852-2.188,6.57-1.655,9.781,0   C241.391,348.734,275.563,324.922,298,298l-27.789-27.797c-2.383-2.375-3.094-5.953-1.805-9.063c1.289-3.11,4.32-5.142,7.688-5.142   h99.578c4.603,0,8.328,3.733,8.328,8.328V363.906z" fill="#4D4D4D"/></g></svg>