<?xml version="1.0" encoding="UTF-8" standalone="no"?>
<!-- Created with Inkscape (http://www.inkscape.org/) -->

<svg
   xmlns:dc="http://purl.org/dc/elements/1.1/"
   xmlns:cc="http://creativecommons.org/ns#"
   xmlns:rdf="http://www.w3.org/1999/02/22-rdf-syntax-ns#"
   xmlns:svg="http://www.w3.org/2000/svg"
   xmlns="http://www.w3.org/2000/svg"
   xmlns:sodipodi="http://sodipodi.sourceforge.net/DTD/sodipodi-0.dtd"
   xmlns:inkscape="http://www.inkscape.org/namespaces/inkscape"
   width="202"
   height="202"
   id="svg7978"
   version="1.1"
   inkscape:version="0.91 r13725"
   sodipodi:docname="homeheading.svg">
  <defs
     id="defs7980" />
  <sodipodi:namedview
     id="base"
     pagecolor="#ffffff"
     bordercolor="#666666"
     borderopacity="1.0"
     inkscape:pageopacity="0.0"
     inkscape:pageshadow="2"
     inkscape:zoom="2"
     inkscape:cx="-70.229098"
     inkscape:cy="23.77276"
     inkscape:document-units="px"
     inkscape:current-layer="layer1"
     showgrid="true"
     inkscape:showpageshadow="false"
     inkscape:snap-global="false"
     inkscape:window-width="1920"
     inkscape:window-height="1018"
     inkscape:window-x="-8"
     inkscape:window-y="-8"
     inkscape:window-maximized="1"
     fit-margin-top="0"
     fit-margin-left="0"
     fit-margin-right="0"
     fit-margin-bottom="0">
    <inkscape:grid
       type="xygrid"
       id="grid7986"
       empspacing="5"
       visible="true"
       enabled="true"
       snapvisiblegridlinesonly="true" />
  </sodipodi:namedview>
  <metadata
     id="metadata7983">
    <rdf:RDF>
      <cc:Work
         rdf:about="">
        <dc:format>image/svg+xml</dc:format>
        <dc:type
           rdf:resource="http://purl.org/dc/dcmitype/StillImage" />
        <dc:title></dc:title>
      </cc:Work>
    </rdf:RDF>
  </metadata>
  <g
     inkscape:groupmode="layer"
     id="layer7"
     inkscape:label="Hidden"
     transform="translate(1,1)" />
  <g
     inkscape:label="Layer 1"
     inkscape:groupmode="layer"
     id="layer1"
     transform="translate(1,-851.36218)"
     style="display:inline">
    <path
       sodipodi:type="arc"
       style="fill:none;stroke:#ffffff;stroke-width:3;stroke-linecap:round;stroke-linejoin:bevel;stroke-miterlimit:4;stroke-opacity:1;stroke-dasharray:none;stroke-dashoffset:0"
       id="path7988"
       sodipodi:cx="100"
       sodipodi:cy="100"
       sodipodi:rx="100"
       sodipodi:ry="100"
       d="M 200,100 A 100,100 0 0 1 100,200 100,100 0 0 1 0,100 100,100 0 0 1 100,0 100,100 0 0 1 200,100 Z"
       transform="matrix(0.98522168,0,0,0.98522167,1.7278325,853.84002)" />
    <path
       style="fill:#ffffff;fill-opacity:1;stroke:#000000;stroke-width:1;stroke-linecap:butt;stroke-linejoin:miter;stroke-miterlimit:4;stroke-dasharray:none;stroke-opacity:1"
       d="m 100.00093,854.32616 c -5.288781,12.60834 -5.036934,12.82204 -5.036934,12.82204 l 9.570174,0 0.25185,0 z"
       id="path8507"
       inkscape:connector-curvature="0"
       sodipodi:nodetypes="ccccc" />
    <rect
       y="867.32343"
       x="98.211243"
       height="5.8275323"
       width="3.5775325"
       id="rect8625"
       style="fill:#ffffff;fill-opacity:1;fill-rule:nonzero;stroke:#000000;stroke-width:0.92246753;stroke-opacity:1" />
    <path
       style="fill:#00ff00"
       d="m 98.896463,10.056191 c 1.818527,-4.4988881 2.101337,-4.9360992 2.506527,-3.8749994 0.25119,0.6578266 1.10608,2.9397984 1.89974,5.0710484 l 1.44302,3.875 -3.94954,0 -3.949548,0 2.049801,-5.071049 z"
       id="path3584"
       inkscape:connector-curvature="0"
       transform="translate(-1,851.36218)" />
    <path
       style="fill:#00ff00"
       d="m 99.770902,18.87724 c 0,-2.066667 0.101852,-2.25 1.249998,-2.25 1.14815,0 1.25,0.183333 1.25,2.25 0,2.066667 -0.10185,2.25 -1.25,2.25 -1.148146,0 -1.249998,-0.183333 -1.249998,-2.25 z"
       id="path3586"
       inkscape:connector-curvature="0"
       transform="translate(-1,851.36218)" />
  </g>
  <g
     inkscape:groupmode="layer"
     id="layer8"
     inkscape:label="graticule"
     style="display:inline" />
</svg>
